<svg width="221" height="223" viewBox="0 0 221 223" fill="none" xmlns="http://www.w3.org/2000/svg">
<path d="M107.109 9.30371C108.664 6.77828 112.336 6.77828 113.891 9.30371L116.687 13.8447C119.072 17.7178 124.211 18.8104 127.965 16.2422L132.367 13.2305C134.815 11.5561 138.169 13.0497 138.562 15.9893L139.269 21.2744C139.872 25.7827 144.123 28.871 148.597 28.0518L153.843 27.0918C156.76 26.5578 159.217 29.2854 158.38 32.1309L156.877 37.248C155.595 41.612 158.222 46.1611 162.642 47.2324L167.825 48.4893C170.707 49.1878 171.842 52.6791 169.92 54.9385L166.465 59.001C163.519 62.4661 164.069 67.691 167.671 70.4678L171.895 73.7236C174.244 75.5342 173.86 79.1851 171.186 80.4678L166.377 82.7744C162.276 84.7415 160.653 89.7383 162.815 93.7402L165.349 98.4316C166.759 101.041 164.923 104.221 161.958 104.305L156.627 104.456C152.081 104.585 148.566 108.489 148.913 113.024L149.32 118.342C149.546 121.299 146.576 123.457 143.833 122.328L138.902 120.298C134.696 118.566 129.896 120.703 128.369 124.987L126.578 130.011C125.582 132.804 121.99 133.568 119.944 131.421L116.265 127.561C113.127 124.268 107.873 124.268 104.735 127.561L101.056 131.421C99.01 133.568 95.4184 132.804 94.4224 130.011L92.6313 124.987C91.1037 120.703 86.3042 118.566 82.0981 120.298L77.1665 122.328C74.4241 123.457 71.4539 121.299 71.6802 118.342L72.0874 113.024C72.4344 108.489 68.9192 104.585 64.3726 104.456L59.0415 104.305C56.0769 104.221 54.2414 101.041 55.6509 98.4316L58.1851 93.7402C60.3468 89.7383 58.7237 84.7415 54.6226 82.7744L49.814 80.4678C47.1399 79.1852 46.7561 75.5342 49.105 73.7236L53.3286 70.4678C56.9312 67.691 57.4812 62.4661 54.5347 59.001L51.0796 54.9385C49.1583 52.6791 50.2929 49.1878 53.1753 48.4893L58.3579 47.2324C62.7784 46.1611 65.4048 41.612 64.1226 37.248L62.6196 32.1309C61.7835 29.2855 64.2395 26.5578 67.1567 27.0918L72.4028 28.0518C76.877 28.871 81.1275 25.7827 81.731 21.2744L82.438 15.9893C82.8314 13.0497 86.1855 11.5561 88.6333 13.2305L93.0347 16.2422C96.7888 18.8104 101.928 17.7178 104.313 13.8447L107.109 9.30371Z" stroke="url(#paint0_linear_30_1752)" stroke-width="3.98198"/>
<path d="M70.6802 141.36V221L110.5 201.09L150.32 221V141.36" stroke="url(#paint1_linear_30_1752)" stroke-width="3.98198" stroke-linecap="round" stroke-linejoin="round"/>
<path fill-rule="evenodd" clip-rule="evenodd" d="M92.6442 70.6809C92.6442 68.6764 92.9844 66.7546 93.5915 64.9521L82.9642 57.0098C80.893 61.1254 79.7261 65.7629 79.7261 70.6809C79.7261 75.5947 80.8916 80.2294 82.9599 84.3422L93.5815 76.3845C92.98 74.5904 92.6442 72.6756 92.6442 70.6809Z" fill="#FBBC05"/>
<path fill-rule="evenodd" clip-rule="evenodd" d="M111.304 52.4445C115.753 52.4445 119.772 53.9875 122.93 56.5125L132.116 47.5349C126.518 42.7656 119.342 39.8198 111.304 39.8198C98.8249 39.8198 88.1 46.8041 82.9644 57.0091L93.5916 64.9514C96.0403 57.6768 103.02 52.4445 111.304 52.4445Z" fill="#EB4335"/>
<path fill-rule="evenodd" clip-rule="evenodd" d="M111.304 88.916C103.02 88.916 96.0403 83.6838 93.5916 76.4092L82.9644 84.3501C88.1 94.5565 98.8249 101.541 111.304 101.541C119.006 101.541 126.359 98.8643 131.878 93.8495L121.79 86.2172C118.944 87.972 115.36 88.916 111.304 88.916Z" fill="#34A853"/>
<path fill-rule="evenodd" clip-rule="evenodd" d="M141.447 70.6798C141.447 68.8563 141.16 66.8924 140.729 65.0688H111.305V76.9922H128.242C127.395 81.0573 125.09 84.1826 121.792 86.2166L131.879 93.8489C137.677 88.583 141.447 80.7389 141.447 70.6798Z" fill="#4285F4"/>
<defs>
<linearGradient id="paint0_linear_30_1752" x1="110.5" y1="0" x2="110.5" y2="141.36" gradientUnits="userSpaceOnUse">
<stop stop-color="#EB4335"/>
<stop offset="0.45" stop-color="#FBBC05"/>
<stop offset="0.7" stop-color="#34A853"/>
<stop offset="1" stop-color="#4285F4"/>
</linearGradient>
<linearGradient id="paint1_linear_30_1752" x1="110.5" y1="141.36" x2="110.5" y2="221" gradientUnits="userSpaceOnUse">
<stop stop-color="#EB4335"/>
<stop offset="0.45" stop-color="#FBBC05"/>
<stop offset="0.7" stop-color="#34A853"/>
<stop offset="1" stop-color="#4285F4"/>
</linearGradient>
</defs>
</svg>
