<svg width="221" height="223" viewBox="0 0 221 223" fill="none" xmlns="http://www.w3.org/2000/svg">
<path d="M107.109 9.30371C108.664 6.77828 112.336 6.77828 113.891 9.30371L116.687 13.8447C119.072 17.7178 124.211 18.8104 127.965 16.2422L132.367 13.2305C134.815 11.5561 138.169 13.0497 138.562 15.9893L139.269 21.2744C139.872 25.7827 144.123 28.871 148.597 28.0518L153.843 27.0918C156.76 26.5578 159.217 29.2854 158.38 32.1309L156.877 37.248C155.595 41.612 158.222 46.1611 162.642 47.2324L167.825 48.4893C170.707 49.1878 171.842 52.6791 169.92 54.9385L166.465 59.001C163.519 62.4661 164.069 67.691 167.671 70.4678L171.895 73.7236C174.244 75.5342 173.86 79.1851 171.186 80.4678L166.377 82.7744C162.276 84.7415 160.653 89.7383 162.815 93.7402L165.349 98.4316C166.759 101.041 164.923 104.221 161.958 104.305L156.627 104.456C152.081 104.585 148.566 108.489 148.913 113.024L149.32 118.342C149.546 121.299 146.576 123.457 143.833 122.328L138.902 120.298C134.696 118.566 129.896 120.703 128.369 124.987L126.578 130.011C125.582 132.804 121.99 133.568 119.944 131.421L116.265 127.561C113.127 124.268 107.873 124.268 104.735 127.561L101.056 131.421C99.01 133.568 95.4184 132.804 94.4224 130.011L92.6313 124.987C91.1037 120.703 86.3042 118.566 82.0981 120.298L77.1665 122.328C74.4241 123.457 71.4539 121.299 71.6802 118.342L72.0874 113.024C72.4344 108.489 68.9192 104.585 64.3726 104.456L59.0415 104.305C56.0769 104.221 54.2414 101.041 55.6509 98.4316L58.1851 93.7402C60.3468 89.7383 58.7237 84.7415 54.6226 82.7744L49.814 80.4678C47.1399 79.1852 46.7561 75.5342 49.105 73.7236L53.3286 70.4678C56.9312 67.691 57.4812 62.4661 54.5347 59.001L51.0796 54.9385C49.1583 52.6791 50.2929 49.1878 53.1753 48.4893L58.3579 47.2324C62.7784 46.1611 65.4048 41.612 64.1226 37.248L62.6196 32.1309C61.7835 29.2855 64.2395 26.5578 67.1567 27.0918L72.4028 28.0518C76.877 28.871 81.1275 25.7827 81.731 21.2744L82.438 15.9893C82.8314 13.0497 86.1855 11.5561 88.6333 13.2305L93.0347 16.2422C96.7888 18.8104 101.928 17.7178 104.313 13.8447L107.109 9.30371Z" stroke="#0074EF" stroke-width="3.98198"/>
<path d="M70.6802 141.36V221L110.5 201.09L150.32 221V141.36" stroke="#0074EF" stroke-width="3.98198" stroke-linecap="round" stroke-linejoin="round"/>
<path d="M140.161 77.5721L137.341 79.7105L134.529 77.7521C134.529 77.5464 134.529 77.3278 134.516 77.1092C134.516 76.9035 134.516 76.6849 134.503 76.4663C134.323 71.4 133.038 65.9738 130.466 62.0005C128.486 58.953 125.953 57.5 123.124 57.5C120.153 57.5 117.736 59.2745 115.061 63.132C114.984 63.2478 114.894 63.3635 114.817 63.4921C114.766 63.5564 114.727 63.6206 114.676 63.6978C114.547 63.8907 114.419 64.0836 114.29 64.2893C113.133 66.0895 111.924 68.1854 110.612 70.4999C110.497 70.7185 110.368 70.9371 110.252 71.1557C110.214 71.2072 110.175 71.2714 110.15 71.3229L109.88 71.7986L108.285 74.6147C104.543 81.2368 103.592 82.7541 101.727 85.2358C98.4483 89.5948 95.6452 91.2535 91.9548 91.2535C87.5829 91.2535 84.8055 89.3633 83.0953 86.5088C81.6937 84.1942 81.0122 81.1468 81.0122 77.675L87.4029 77.8936C87.4029 80.1567 87.8915 81.8797 88.5473 82.9341C89.3959 84.2971 90.6432 84.8243 91.9419 84.8243C93.6007 84.8243 95.1437 84.4771 98.0754 80.4138C100.429 77.1606 103.206 72.6087 105.07 69.7413L106.832 67.0539L107.205 66.4624L107.591 65.8837L108.234 64.8936C109.211 63.4021 110.265 61.8205 111.397 60.3032C111.525 60.1231 111.654 59.9431 111.795 59.7631C111.924 59.5831 112.065 59.4031 112.194 59.2359C113.351 57.7572 114.573 56.3813 115.884 55.2498C118.263 53.1796 120.822 52.0352 123.407 52.0352C127.74 52.0352 131.868 54.5426 135.031 59.2488C138.258 64.0578 139.943 70.0499 140.136 76.2863C140.148 76.492 140.148 76.7106 140.148 76.9292C140.161 77.1478 140.161 77.3535 140.161 77.5721Z" fill="#0081FB"/>
<path d="M86.05 59.6937C88.9779 55.1868 93.2058 52.0352 98.0534 52.0352C100.862 52.0352 103.652 52.8645 106.567 55.2408C109.755 57.8382 113.153 62.1149 117.393 69.1639L118.912 71.6932C122.582 77.7958 124.669 80.9346 125.892 82.4159C127.463 84.3177 128.444 84.8243 129.874 84.8243C133.5 84.8243 134.525 81.5582 134.525 77.7508L140.161 77.5747C140.161 81.5544 139.375 84.4784 138.038 86.7878C136.747 89.0213 134.229 91.2535 129.994 91.2535C127.36 91.2535 125.028 90.6826 122.449 88.2536C120.466 86.3892 118.147 83.0768 116.364 80.1001L111.059 71.2547C108.397 66.816 105.955 63.5049 104.542 62.0069C103.022 60.3945 101.145 58.4657 98.0264 58.4657C95.5023 58.4657 93.2829 60.217 91.4892 62.9211L86.05 59.6937Z" fill="url(#paint0_linear_30_1753)"/>
<path d="M98.0497 58.4644C95.5307 58.4644 93.3139 60.2157 91.524 62.9199C88.9922 66.7414 87.4414 72.4326 87.4414 77.8987C87.4414 80.1528 87.4376 81.8488 88.0844 82.8955L83.1467 86.5126C81.7503 84.1904 81.0122 81.2239 81.0122 77.7521C81.0122 71.4386 82.7545 64.7766 86.0502 59.6937C88.9742 55.1868 93.2368 52.0352 98.0754 52.0352L98.0497 58.4644Z" fill="url(#paint1_linear_30_1753)"/>
<path opacity="0.05" d="M107.591 65.8837L107.205 66.4623L106.832 67.0538C107.745 68.3782 108.787 69.9727 109.879 71.7986L110.15 71.3228C110.175 71.2714 110.214 71.2071 110.252 71.1557C110.368 70.9371 110.497 70.7185 110.612 70.4999C109.545 68.7511 108.516 67.1952 107.591 65.8837ZM111.795 59.763C111.654 59.9431 111.525 60.1231 111.397 60.3031C112.335 61.4732 113.287 62.7976 114.29 64.2892C114.419 64.0835 114.547 63.8906 114.676 63.6977C114.727 63.6206 114.766 63.5563 114.817 63.492C114.894 63.3634 114.984 63.2477 115.061 63.132C114.084 61.6918 113.133 60.3931 112.194 59.2358C112.065 59.403 111.924 59.583 111.795 59.763Z" fill="black"/>
<path opacity="0.07" d="M107.59 65.8843L107.204 66.4629C108.117 67.7745 109.146 69.3432 110.252 71.1563C110.368 70.9377 110.496 70.7191 110.612 70.5005C109.545 68.7518 108.516 67.1959 107.59 65.8843ZM111.396 60.3037C112.335 61.4739 113.286 62.7983 114.289 64.2899C114.418 64.0841 114.547 63.8912 114.675 63.6984C113.685 62.2325 112.721 60.9209 111.795 59.7637C111.653 59.9437 111.525 60.1237 111.396 60.3037Z" fill="black"/>
<defs>
<linearGradient id="paint0_linear_30_1753" x1="134.123" y1="71.6443" x2="97.1276" y2="71.6443" gradientUnits="userSpaceOnUse">
<stop stop-color="#0081FB"/>
<stop offset="0.995" stop-color="#0064E1"/>
</linearGradient>
<linearGradient id="paint1_linear_30_1753" x1="89.5438" y1="82.0854" x2="89.5438" y2="56.5511" gradientUnits="userSpaceOnUse">
<stop stop-color="#0081FB"/>
<stop offset="0.995" stop-color="#0064E1"/>
</linearGradient>
</defs>
</svg>
